<svg xmlns="http://www.w3.org/2000/svg" xmlns:xlink="http://www.w3.org/1999/xlink" version="1.1" id="Layer_1" x="0px" y="0px" width="100%" viewBox="0 0 820 1000" enable-background="new 0 0 820 1000" xml:space="preserve">
<path fill="#FEFFFF" opacity="1.000000" stroke="none" d=" M821.000000,383.000000   C821.000000,589.333313 821.000000,795.166687 821.000000,1001.000000   C547.666687,1001.000000 274.333344,1001.000000 1.000000,1001.000000   C1.000000,667.666687 1.000000,334.333344 1.000000,1.000000   C274.333344,1.000000 547.666687,1.000000 821.000000,1.000000   C821.000000,128.166672 821.000000,255.333328 821.000000,383.000000  M98.146179,472.532410   C98.178040,473.007416 98.209900,473.482452 97.635994,474.301514   C96.285240,476.149445 95.148415,478.210388 93.551926,479.813599   C65.212296,508.272339 36.842518,536.701294 8.387213,565.044312   C5.959620,567.462280 4.773078,569.853210 4.930678,573.337708   C5.418920,584.132568 5.688234,594.939209 5.906970,605.744019   C6.294336,624.878723 6.600838,644.015137 6.906193,663.151367   C7.262043,685.452026 7.603834,707.752991 7.908974,730.054321   C8.287075,757.688110 8.622939,785.322510 8.971064,812.956665   C8.996251,814.956116 9.105609,816.967041 8.942871,818.953613   C8.647602,822.558044 10.010327,824.340942 13.786482,823.928833   C16.750834,823.605286 19.719646,823.168945 22.693151,823.107910   C41.826263,822.715393 60.960808,822.386719 80.095650,822.086487   C103.395844,821.720825 126.697098,821.422974 149.997330,821.059875   C169.466629,820.756531 188.934753,820.375366 208.404114,820.076111   C232.204239,819.710327 256.005524,819.420166 279.805573,819.047668   C298.106140,818.761169 316.405212,818.374817 334.705597,818.074890   C356.505310,817.717651 378.305817,817.410339 400.105804,817.072083   C421.074249,816.746704 442.041656,816.331848 463.011108,816.103638   C478.341461,815.936829 493.674652,815.960022 509.005768,816.044128   C510.685577,816.053345 512.688965,816.609741 513.974609,817.628662   C517.613953,820.513000 520.929810,823.802002 524.424133,826.873413   C535.653442,836.743652 546.878113,846.619446 558.155701,856.434326   C575.185913,871.255676 592.300781,885.979980 609.300171,900.836426   C621.558716,911.549683 633.625183,922.482910 645.889465,933.189575   C665.647278,950.438049 685.487854,967.591858 705.319397,984.755615   C708.240417,987.283752 711.304443,989.646729 715.113892,992.746521   C715.511047,990.176392 715.952698,988.766785 715.904724,987.374023   C715.710571,981.733887 715.202637,976.101746 715.104980,970.461548   C714.692688,946.662109 714.326111,922.861572 714.063232,899.060059   C713.906799,884.896179 714.085449,870.728577 713.911011,856.565063   C713.722473,841.261169 713.290771,825.960266 712.984619,810.657715   C712.938171,808.335938 712.532776,805.948608 716.258606,805.902527   C722.230469,805.828735 728.194824,805.196289 734.167236,805.097412   C758.800659,804.689392 783.435425,804.302368 808.071106,804.148682   C812.039124,804.123901 813.237488,803.003052 813.124512,799.050598   C812.629883,781.752930 812.343567,764.448425 812.102295,747.144714   C811.691467,717.678284 811.415955,688.209900 810.992737,658.743713   C810.801697,645.439697 810.369263,632.139282 810.087769,618.836365   C809.732178,602.036316 809.350403,585.236511 809.103027,568.434692   C808.708557,541.634338 808.418945,514.832458 808.078735,488.031311   C807.727905,460.396545 807.411926,432.761200 806.996826,405.127380   C806.789551,391.323578 806.377258,377.522949 806.090149,363.720245   C805.737183,346.753174 805.351685,329.786377 805.099792,312.817688   C804.709229,286.517029 804.417114,260.214905 804.088013,233.913330   C803.723450,204.778427 803.404358,175.642868 802.985535,146.508743   C802.775085,131.871674 802.385315,117.237190 802.080200,102.601471   C801.747375,86.632843 801.331177,70.665314 801.116211,54.695087   C800.945740,42.031582 801.016052,29.364738 800.994751,16.699354   C800.977966,6.723339 800.989014,6.771902 791.049011,6.917464   C765.248413,7.295293 739.446777,7.595193 713.646484,7.987007   C697.010681,8.239645 680.376526,8.597301 663.741699,8.912227   C646.272400,9.242949 628.804382,9.690227 611.333557,9.880874   C594.170227,10.068168 577.002258,10.146739 559.840393,9.938549   C555.315430,9.883657 552.036865,11.041698 548.935852,14.425003   C531.183350,33.793171 513.224121,52.971687 495.379425,72.255608   C491.094421,76.886215 487.099060,81.787743 482.757416,86.362457   C474.177063,95.403473 465.447876,104.303207 455.865753,113.273567   C336.801697,113.273567 217.737625,113.273567 98.162865,113.273567   C98.162865,116.365517 98.162827,118.827156 98.162872,121.288795   C98.165176,233.754059 98.169006,346.219330 98.162064,458.684601   C98.161873,461.846375 98.046745,465.008148 97.642609,468.203247   C97.756767,468.413055 97.870926,468.622833 98.124229,469.606903   C98.080002,470.127441 98.035774,470.647949 97.649040,471.202942   C97.763069,471.413574 97.877098,471.624207 98.146179,472.532410  z"/>
<path fill="#99FFEA" opacity="1.000000" stroke="none" d=" M456.780212,113.261353   C465.447876,104.303207 474.177063,95.403473 482.757416,86.362457   C487.099060,81.787743 491.094421,76.886215 495.379425,72.255608   C513.224121,52.971687 531.183350,33.793171 548.935852,14.425003   C552.036865,11.041698 555.315430,9.883657 559.840393,9.938549   C577.002258,10.146739 594.170227,10.068168 611.333557,9.880874   C628.804382,9.690227 646.272400,9.242949 663.741699,8.912227   C680.376526,8.597301 697.010681,8.239645 713.646484,7.987007   C739.446777,7.595193 765.248413,7.295293 791.049011,6.917464   C800.989014,6.771902 800.977966,6.723339 800.994751,16.699354   C801.016052,29.364738 800.945740,42.031582 801.116211,54.695087   C801.331177,70.665314 801.747375,86.632843 802.080200,102.601471   C802.385315,117.237190 802.775085,131.871674 802.985535,146.508743   C803.404358,175.642868 803.723450,204.778427 804.088013,233.913330   C804.417114,260.214905 804.709229,286.517029 805.099792,312.817688   C805.351685,329.786377 805.737183,346.753174 806.090149,363.720245   C806.377258,377.522949 806.789551,391.323578 806.996826,405.127380   C807.411926,432.761200 807.727905,460.396545 808.078735,488.031311   C808.418945,514.832458 808.708557,541.634338 809.103027,568.434692   C809.350403,585.236511 809.732178,602.036316 810.087769,618.836365   C810.369263,632.139282 810.801697,645.439697 810.992737,658.743713   C811.415955,688.209900 811.691467,717.678284 812.102295,747.144714   C812.343567,764.448425 812.629883,781.752930 813.124512,799.050598   C813.237488,803.003052 812.039124,804.123901 808.071106,804.148682   C783.435425,804.302368 758.800659,804.689392 734.167236,805.097412   C728.194824,805.196289 722.230469,805.828735 716.258606,805.902527   C712.532776,805.948608 712.938171,808.335938 712.984619,810.657715   C713.290771,825.960266 713.722473,841.261169 713.911011,856.565063   C714.085449,870.728577 713.906799,884.896179 714.063232,899.060059   C714.326111,922.861572 714.692688,946.662109 715.104980,970.461548   C715.202637,976.101746 715.710571,981.733887 715.904724,987.374023   C715.952698,988.766785 715.511047,990.176392 715.113892,992.746521   C711.304443,989.646729 708.240417,987.283752 705.319397,984.755615   C685.487854,967.591858 665.647278,950.438049 645.889465,933.189575   C633.625183,922.482910 621.558716,911.549683 609.300171,900.836426   C592.300781,885.979980 575.185913,871.255676 558.155701,856.434326   C546.878113,846.619446 535.653442,836.743652 524.424133,826.873413   C520.929810,823.802002 517.613953,820.513000 513.974609,817.628662   C512.688965,816.609741 510.685577,816.053345 509.005768,816.044128   C493.674652,815.960022 478.341461,815.936829 463.011108,816.103638   C442.041656,816.331848 421.074249,816.746704 400.105804,817.072083   C378.305817,817.410339 356.505310,817.717651 334.705597,818.074890   C316.405212,818.374817 298.106140,818.761169 279.805573,819.047668   C256.005524,819.420166 232.204239,819.710327 208.404114,820.076111   C188.934753,820.375366 169.466629,820.756531 149.997330,821.059875   C126.697098,821.422974 103.395844,821.720825 80.095650,822.086487   C60.960808,822.386719 41.826263,822.715393 22.693151,823.107910   C19.719646,823.168945 16.750834,823.605286 13.786482,823.928833   C10.010327,824.340942 8.647602,822.558044 8.942871,818.953613   C9.105609,816.967041 8.996251,814.956116 8.971064,812.956665   C8.622939,785.322510 8.287075,757.688110 7.908974,730.054321   C7.603834,707.752991 7.262043,685.452026 6.906193,663.151367   C6.600838,644.015137 6.294336,624.878723 5.906970,605.744019   C5.688234,594.939209 5.418920,584.132568 4.930678,573.337708   C4.773078,569.853210 5.959620,567.462280 8.387213,565.044312   C36.842518,536.701294 65.212296,508.272339 93.551926,479.813599   C95.148415,478.210388 96.285240,476.149445 98.227463,473.999023   C99.546280,473.291840 100.273636,472.887177 101.042915,472.988953   C101.363510,480.476501 101.710045,487.455719 101.908516,494.439087   C102.589264,518.391418 103.216408,542.345276 103.867226,566.298462   C104.536133,590.917236 105.208801,615.535950 105.879875,640.154663   C106.550896,664.771240 107.414261,689.385254 107.741776,714.006409   C107.813072,719.365601 109.658127,720.159485 114.385216,720.147095   C170.672836,719.999573 226.960983,720.056885 283.248993,720.042114   C286.409119,720.041321 289.569214,719.879700 292.876831,720.196960   C294.994904,721.054810 296.965179,721.904480 298.936066,721.905762   C404.144165,721.975647 509.352295,721.974182 614.560425,721.977478   C615.725098,721.977539 616.995667,722.226868 618.023132,721.842346   C618.950317,721.495422 619.611572,720.437744 620.832764,719.742920   C622.435486,719.878235 623.595581,720.038696 624.755737,720.039307   C651.755249,720.053101 678.755859,719.926514 705.753357,720.160706   C710.720886,720.203735 711.805542,718.566101 711.803040,713.888855   C711.697998,516.891296 711.714294,319.893677 711.715454,122.896057   C711.715454,120.995064 711.715454,119.094063 711.715454,116.884674   C625.497498,116.884674 540.183533,116.884674 454.956238,116.595566   C455.622009,115.291428 456.201111,114.276390 456.780212,113.261353  z"/>
<path fill="#0B6C41" opacity="1.000000" stroke="none" d=" M101.000984,472.482483   C100.273636,472.887177 99.546280,473.291840 98.530342,473.826965   C98.209900,473.482452 98.178040,473.007416 98.177261,472.018097   C98.208336,471.503784 97.991539,471.168488 97.991539,471.168488   C98.035774,470.647949 98.080002,470.127441 98.163239,469.055115   C98.202240,468.503357 97.985214,468.169922 97.985214,468.169922   C98.046745,465.008148 98.161873,461.846375 98.162064,458.684601   C98.169006,346.219330 98.165176,233.754059 98.162872,121.288795   C98.162827,118.827156 98.162865,116.365517 98.162865,113.273567   C217.737625,113.273567 336.801697,113.273567 456.322968,113.267456   C456.201111,114.276390 455.622009,115.291428 454.511963,116.581787   C446.083191,115.416168 440.737518,119.111885 435.477600,124.700752   C419.644684,141.523804 403.243683,157.810410 387.230042,174.465637   C369.748322,192.647720 352.516602,211.069946 335.059753,229.276154   C308.723907,256.742493 282.279388,284.104584 255.896561,311.525909   C240.220963,327.818573 224.599121,344.162994 208.909973,360.442566   C189.172272,380.923004 169.425323,401.394806 149.616577,421.806519   C134.204483,437.687714 118.684128,453.463837 103.243088,469.317078   C102.351852,470.232086 101.741852,471.421021 101.000984,472.482483  z"/>
<path fill="#02A89E" opacity="1.000000" stroke="none" d=" M101.042908,472.988953   C101.741852,471.421021 102.351852,470.232086 103.243088,469.317078   C118.684128,453.463837 134.204483,437.687714 149.616577,421.806519   C169.425323,401.394806 189.172272,380.923004 208.909973,360.442566   C224.599121,344.162994 240.220963,327.818573 255.896561,311.525909   C282.279388,284.104584 308.723907,256.742493 335.059753,229.276154   C352.516602,211.069946 369.748322,192.647720 387.230042,174.465637   C403.243683,157.810410 419.644684,141.523804 435.477600,124.700752   C440.737518,119.111885 446.083191,115.416168 454.425293,116.870895   C540.183533,116.884674 625.497498,116.884674 711.715454,116.884674   C711.715454,119.094063 711.715454,120.995064 711.715454,122.896057   C711.714294,319.893677 711.697998,516.891296 711.803040,713.888855   C711.805542,718.566101 710.720886,720.203735 705.753357,720.160706   C678.755859,719.926514 651.755249,720.053101 624.755737,720.039307   C623.595581,720.038696 622.435486,719.878235 620.656616,719.456177   C581.075806,675.956665 542.113831,632.793152 503.075104,589.544556   C546.518799,567.416077 567.799805,519.788025 556.842651,474.519836   C547.134766,434.412537 511.098175,399.357910 462.569977,397.367218   C421.682190,395.689941 380.805878,419.075684 364.190063,461.291351   C356.240234,481.489349 354.714661,502.279022 360.235870,523.328491   C368.042114,553.089722 386.030182,574.934265 413.352417,589.409790   C412.448273,590.618774 411.929657,591.463440 411.268005,592.175110   C388.479889,616.687012 365.653717,641.163574 342.886810,665.695068   C326.803040,683.025452 310.796936,700.427917 294.515594,717.856567   C293.956665,718.091614 293.789917,718.361877 293.570557,718.871704   C293.153992,719.276123 292.941650,719.534546 292.729309,719.792969   C289.569214,719.879700 286.409119,720.041321 283.248993,720.042114   C226.960983,720.056885 170.672836,719.999573 114.385216,720.147095   C109.658127,720.159485 107.813072,719.365601 107.741776,714.006409   C107.414261,689.385254 106.550896,664.771240 105.879875,640.154663   C105.208801,615.535950 104.536133,590.917236 103.867226,566.298462   C103.216408,542.345276 102.589264,518.391418 101.908516,494.439087   C101.710045,487.455719 101.363510,480.476501 101.042908,472.988953  z"/>
<path fill="#FDFFFF" opacity="1.000000" stroke="none" d=" M292.876831,720.196960   C292.941650,719.534546 293.153992,719.276123 293.835693,718.855164   C294.455475,718.394470 294.605804,718.096375 294.756165,717.798218   C310.796936,700.427917 326.803040,683.025452 342.886810,665.695068   C365.653717,641.163574 388.479889,616.687012 411.268005,592.175110   C411.929657,591.463440 412.448273,590.618774 413.352417,589.409790   C386.030182,574.934265 368.042114,553.089722 360.235870,523.328491   C354.714661,502.279022 356.240234,481.489349 364.190063,461.291351   C380.805878,419.075684 421.682190,395.689941 462.569977,397.367218   C511.098175,399.357910 547.134766,434.412537 556.842651,474.519836   C567.799805,519.788025 546.518799,567.416077 503.075104,589.544556   C542.113831,632.793152 581.075806,675.956665 620.213989,719.406860   C619.611572,720.437744 618.950317,721.495422 618.023132,721.842346   C616.995667,722.226868 615.725098,721.977539 614.560425,721.977478   C509.352295,721.974182 404.144165,721.975647 298.936066,721.905762   C296.965179,721.904480 294.994904,721.054810 292.876831,720.196960  z"/>
</svg>